# xmcd CD database file generated by OrangeCD 5.2
#
# Track frame offsets:
#	150
#	12792
#	25179
#	37132
#	49316
#	61590
#	74453
#	87782
#	100396
#	113653
#	122593
#	135758
#	148280
#	160291
#	172102
#	185048
#	199291
#	210987
#	221086
#	233780
#
# Disc length: 3286 seconds
#
# Revision: 0
# Processed by: cddbd v1.5.1PL0 Copyright (c) Steve Scherf et al.
# Submitted via: OrangeCD 5.2
#
DISCID=220cd414
DTITLE=Dinah Washington - Queen Of The Blues
DYEAR=2002
DGENRE=Blues
TTITLE0=Ain't Misbehavin'
TTITLE1=I Can't Get Started With You
TTITLE2=Since I Fell For You
TTITLE3=You Can Depend On Me
TTITLE4=Do Nothing Til You Hear From Me
TTITLE5=Blues For A Day
TTITLE6=The Man I Love
TTITLE7=No More Lonely Gal Blues
TTITLE8=I'm Getting Old Before My Time
TTITLE9=And Her Tears Flowed Like Wine
TTITLE10=Rich Man Blues
TTITLE11=Why Can't You Behave?
TTITLE12=Pacific Coast Blues
TTITLE13=I Love You, Yes I Do
TTITLE14=Don't Come Knocking At My Door
TTITLE15=I Want To Cry
TTITLE16=It's Funny
TTITLE17=There'll Be A Jubilee
TTITLE18=No Love, No Nothin'
TTITLE19=I'm Afraid Of You
EXTD=
EXTT0=
EXTT1=
EXTT2=
EXTT3=
EXTT4=
EXTT5=
EXTT6=
EXTT7=
EXTT8=
EXTT9=
EXTT10=
EXTT11=
EXTT12=
EXTT13=
EXTT14=
EXTT15=
EXTT16=
EXTT17=
EXTT18=
EXTT19=
PLAYORDER=
